{
	"asset":{
		"generator":"Khronos glTF Blender I/O v4.2.60",
		"version":"2.0"
	},
	"scene":0,
	"scenes":[
		{
			"name":"Scene",
			"nodes":[
				63,
				64,
				65,
				66,
				67,
				68,
				69,
				70,
				71,
				72
			]
		}
	],
	"nodes":[
		{
			"mesh":0,
			"name":"model",
			"rotation":[
				-0.0010118091013282537,
				0.0049166614189744,
				0.044049277901649475,
				0.9990167617797852
			],
			"scale":[
				0.37451428174972534,
				0.37451446056365967,
				0.3745146691799164
			],
			"translation":[
				0.02058263123035431,
				-0.3348544239997864,
				-1.1611943244934082
			]
		},
		{
			"mesh":1,
			"name":"Sphere",
			"rotation":[
				-0.9931783080101013,
				0.01103401742875576,
				-0.011455273255705833,
				0.11551587283611298
			],
			"scale":[
				0.064666748046875,
				0.11118815094232559,
				0.08308549970388412
			],
			"translation":[
				-0.20173701643943787,
				-0.9543676376342773,
				-0.9077068567276001
			]
		},
		{
			"mesh":2,
			"name":"Sphere.001",
			"rotation":[
				-0.9931783080101013,
				0.01103401742875576,
				-0.011455273255705833,
				0.11551587283611298
			],
			"scale":[
				0.064666748046875,
				0.11118815094232559,
				0.08308549970388412
			],
			"translation":[
				0.1785503774881363,
				-0.9637138247489929,
				-0.9000192880630493
			]
		},
		{
			"children":[
				0,
				1,
				2
			],
			"mesh":3,
			"name":"mycar-body",
			"rotation":[
				-0.9999949336051941,
				-8.808022755601996e-08,
				0.003174905199557543,
				4.9578634531144417e-08
			],
			"scale":[
				1.0000001192092896,
				1,
				0.9999999403953552
			],
			"translation":[
				1.3111289831613249e-10,
				-0.03268095850944519,
				-0.281562477350235
			]
		},
		{
			"children":[
				3
			],
			"name":"DEF-Body",
			"rotation":[
				-0.7071067690849304,
				0,
				0,
				0.7071067690849304
			],
			"translation":[
				0,
				0.27068403363227844,
				0.3594937324523926
			]
		},
		{
			"mesh":4,
			"name":"mycar-wheel.Ft.L",
			"rotation":[
				-0.9816645383834839,
				0,
				0,
				0.1906166821718216
			],
			"scale":[
				1,
				0.9999997615814209,
				0.9999997615814209
			],
			"translation":[
				-5.960464477539063e-08,
				0,
				0
			]
		},
		{
			"children":[
				5
			],
			"name":"DEF-Wheel.Ft.L",
			"rotation":[
				-0.7071067690849304,
				0,
				0,
				0.7071067690849304
			],
			"translation":[
				0.6386147737503052,
				0.3164646327495575,
				1.0424342155456543
			]
		},
		{
			"mesh":5,
			"name":"mycar-wheel.Ft.R",
			"rotation":[
				-0.9816645383834839,
				0,
				0,
				0.1906166821718216
			],
			"scale":[
				1,
				0.9999997615814209,
				0.9999997615814209
			],
			"translation":[
				-5.960464477539063e-08,
				0,
				2.9802322387695312e-08
			]
		},
		{
			"children":[
				7
			],
			"name":"DEF-Wheel.Ft.R",
			"rotation":[
				-0.7071067690849304,
				0,
				0,
				0.7071067690849304
			],
			"translation":[
				-0.639637291431427,
				0.31615012884140015,
				1.0426344871520996
			]
		},
		{
			"mesh":6,
			"name":"mycar-wheel.Bk.L",
			"rotation":[
				-0.9816645979881287,
				0,
				0,
				0.1906166523694992
			],
			"scale":[
				1,
				0.9999998211860657,
				0.9999998211860657
			],
			"translation":[
				-5.960464477539063e-08,
				2.232263796031475e-08,
				0
			]
		},
		{
			"children":[
				9
			],
			"name":"DEF-Wheel.Bk.L",
			"rotation":[
				-0.7071067690849304,
				0,
				0,
				0.7071067690849304
			],
			"translation":[
				0.6365892291069031,
				0.3297280967235565,
				-0.00025275349617004395
			]
		},
		{
			"mesh":7,
			"name":"mycar-wheel.Bk.R",
			"rotation":[
				-0.9816645979881287,
				0,
				0,
				0.1906166523694992
			],
			"scale":[
				1,
				0.9999998211860657,
				0.9999998211860657
			],
			"translation":[
				5.960464477539063e-08,
				1.862645149230957e-08,
				-2.9802322387695312e-08
			]
		},
		{
			"children":[
				11
			],
			"name":"DEF-Wheel.Bk.R",
			"rotation":[
				-0.7071067690849304,
				0,
				0,
				0.7071067690849304
			],
			"translation":[
				-0.6363977789878845,
				0.329607754945755,
				0.00025272369384765625
			]
		},
		{
			"name":"SHP-Root",
			"translation":[
				0.0035238517448306084,
				-0.44906020164489746,
				0.009999999776482582
			]
		},
		{
			"name":"SHP-GroundSensor.Axle.Bk",
			"translation":[
				0,
				-5.960464477539063e-08,
				-0.32866793870925903
			]
		},
		{
			"name":"SHP-Drift",
			"translation":[
				0,
				0.8513687252998352,
				0.32966792583465576
			]
		},
		{
			"name":"SHP-GroundSensor.Ft.L",
			"translation":[
				0,
				0,
				-0.31546464562416077
			]
		},
		{
			"name":"WheelBrake.Ft.L",
			"translation":[
				0.17132800817489624,
				0,
				0
			]
		},
		{
			"children":[
				17
			],
			"name":"MCH-Wheel.Ft.L",
			"translation":[
				0.03173983097076416,
				0.015778541564941406,
				0
			]
		},
		{
			"name":"Wheel.Ft.L",
			"translation":[
				0.2030678391456604,
				0.015778541564941406,
				0
			]
		},
		{
			"name":"MCH-WheelDamper.Ft.L",
			"translation":[
				-0.21060633659362793,
				0,
				-0.15823230147361755
			]
		},
		{
			"children":[
				20
			],
			"name":"WheelDamper.Ft.L",
			"translation":[
				0.2423461675643921,
				0.015778541564941406,
				0.15823230147361755
			]
		},
		{
			"children":[
				16,
				18,
				19,
				21
			],
			"name":"GroundSensor.Ft.L",
			"scale":[
				1,
				0.9999999403953552,
				1
			],
			"translation":[
				0.606874942779541,
				-1.0582127571105957,
				0.3164646327495575
			]
		},
		{
			"name":"SHP-GroundSensor.Ft.R",
			"translation":[
				0,
				0,
				-0.3151501417160034
			]
		},
		{
			"name":"MCH-Wheel.Ft.R",
			"translation":[
				-0.029305756092071533,
				0.015718936920166016,
				0
			]
		},
		{
			"name":"Wheel.Ft.R",
			"translation":[
				-0.19959133863449097,
				0.015718936920166016,
				0
			]
		},
		{
			"name":"MCH-WheelDamper.Ft.R",
			"translation":[
				0.20948529243469238,
				0,
				-0.15807506442070007
			]
		},
		{
			"children":[
				26
			],
			"name":"WheelDamper.Ft.R",
			"translation":[
				-0.23879104852676392,
				0.015718936920166016,
				0.15807506442070007
			]
		},
		{
			"children":[
				23,
				24,
				25,
				27
			],
			"name":"GroundSensor.Ft.R",
			"translation":[
				-0.6103315353393555,
				-1.0583534240722656,
				0.31615012884140015
			]
		},
		{
			"name":"SHP-GroundSensor.Bk.L",
			"translation":[
				0,
				0,
				-0.3287281095981598
			]
		},
		{
			"name":"WheelBrake.Bk.L",
			"translation":[
				0.17523139715194702,
				0,
				0
			]
		},
		{
			"children":[
				30
			],
			"name":"MCH-Wheel.Bk.L",
			"translation":[
				0.02914726734161377,
				-0.01628240942955017,
				0
			]
		},
		{
			"name":"Wheel.Bk.L",
			"scale":[
				1,
				0.9999999403953552,
				1
			],
			"translation":[
				0.2043786644935608,
				-0.01628240942955017,
				0
			]
		},
		{
			"name":"MCH-WheelDamper.Bk.L",
			"translation":[
				-0.2162567377090454,
				0,
				-0.16486403346061707
			]
		},
		{
			"children":[
				33
			],
			"name":"WheelDamper.Bk.L",
			"translation":[
				0.24540400505065918,
				-0.01628240942955017,
				0.16486403346061707
			]
		},
		{
			"children":[
				29,
				31,
				32,
				34
			],
			"name":"GroundSensor.Bk.L",
			"translation":[
				0.6074419617652893,
				0.016535162925720215,
				0.3297280967235565
			]
		},
		{
			"name":"SHP-GroundSensor.Bk.R",
			"translation":[
				0,
				0,
				-0.3286077678203583
			]
		},
		{
			"name":"MCH-Wheel.Bk.R",
			"translation":[
				-0.028908729553222656,
				-0.016706079244613647,
				0
			]
		},
		{
			"name":"Wheel.Bk.R",
			"translation":[
				-0.20431172847747803,
				-0.016706079244613647,
				0
			]
		},
		{
			"name":"MCH-WheelDamper.Bk.R",
			"translation":[
				0.2163982391357422,
				0,
				-0.1648038923740387
			]
		},
		{
			"children":[
				39
			],
			"name":"WheelDamper.Bk.R",
			"translation":[
				-0.24530696868896484,
				-0.016706079244613647,
				0.1648038923740387
			]
		},
		{
			"children":[
				36,
				37,
				38,
				40
			],
			"name":"GroundSensor.Bk.R",
			"translation":[
				-0.6074890494346619,
				0.01645335555076599,
				0.329607754945755
			]
		},
		{
			"name":"MCH-Axis.Ft",
			"rotation":[
				0.00017396443581674248,
				1.0288951114711953e-11,
				-0.7070513367652893,
				0.7071622014045715
			],
			"scale":[
				0.9999998807907104,
				0.9999998807907104,
				1
			],
			"translation":[
				-0.639637291431427,
				-1.0426344871520996,
				0.31615012884140015
			]
		},
		{
			"name":"MCH-Axis.Bk",
			"rotation":[
				6.683304673060775e-05,
				5.143857995798529e-12,
				-0.7069664597511292,
				0.7072471380233765
			],
			"scale":[
				0.9999999403953552,
				0.9999999403953552,
				1
			],
			"translation":[
				-0.6363977789878845,
				-0.00025272369384765625,
				0.329607754945755
			]
		},
		{
			"name":"MCH-Suspension.Bk",
			"translation":[
				0,
				0,
				0.32966792583465576
			]
		},
		{
			"name":"MCH-Body",
			"rotation":[
				-0.006407336797565222,
				0,
				0,
				0.9999794960021973
			],
			"translation":[
				0,
				0.6823999285697937,
				-0.054372388869524
			]
		},
		{
			"name":"Suspension",
			"rotation":[
				-0.006407318636775017,
				0,
				0,
				0.9999794960021973
			],
			"scale":[
				1,
				0.9999999403953552,
				1
			],
			"translation":[
				0,
				0.6969141364097595,
				1.078181505203247
			]
		},
		{
			"children":[
				45,
				46
			],
			"name":"MCH-Axis",
			"rotation":[
				-3.725290298461914e-09,
				0,
				0,
				1
			],
			"translation":[
				0,
				-5.960464477539063e-08,
				-1.3969838619232178e-08
			]
		},
		{
			"children":[
				47
			],
			"name":"MCH-Suspension.Ft",
			"rotation":[
				0.00640734052285552,
				0,
				0,
				0.9999794960021973
			],
			"scale":[
				1,
				1,
				0.9999999403953552
			],
			"translation":[
				0,
				-1.042534351348877,
				0.3163073658943176
			]
		},
		{
			"children":[
				15,
				22,
				28,
				35,
				41,
				42,
				43,
				44,
				48
			],
			"name":"MCH-Root.Axle.Bk",
			"translation":[
				0,
				-5.960464477539063e-08,
				-0.32966792583465576
			]
		},
		{
			"children":[
				14,
				49
			],
			"name":"GroundSensor.Axle.Bk",
			"rotation":[
				1,
				0,
				7.549790126404332e-08,
				0
			],
			"translation":[
				0,
				-1.0425341129302979,
				0
			]
		},
		{
			"children":[
				50
			],
			"name":"Drift",
			"rotation":[
				1,
				0,
				7.549790126404332e-08,
				0
			],
			"translation":[
				0,
				-1.042534351348877,
				0.32966792583465576
			]
		},
		{
			"name":"SHP-GroundSensor.Axle.Ft",
			"translation":[
				0,
				0,
				-0.3153073787689209
			]
		},
		{
			"name":"MCH-Root.Axle.Ft",
			"translation":[
				0,
				0,
				-0.3153073787689209
			]
		},
		{
			"name":"MCH-Steering"
		},
		{
			"children":[
				52,
				53,
				54
			],
			"name":"GroundSensor.Axle.Ft",
			"translation":[
				0,
				-1.042534351348877,
				0.3163073658943176
			]
		},
		{
			"children":[
				13,
				51,
				55
			],
			"name":"Root",
			"rotation":[
				-0.7071067690849304,
				0,
				0,
				0.7071067690849304
			]
		},
		{
			"name":"MCH-Wheel.rotation.Ft.L",
			"rotation":[
				-0.7071067690849304,
				0,
				0,
				0.7071067690849304
			],
			"translation":[
				0.6386147737503052,
				0.3164646327495575,
				1.0424342155456543
			]
		},
		{
			"name":"MCH-Wheel.rotation.Ft.R",
			"rotation":[
				-0.7071067690849304,
				0,
				0,
				0.7071067690849304
			],
			"translation":[
				-0.639637291431427,
				0.31615012884140015,
				1.0426344871520996
			]
		},
		{
			"name":"MCH-Wheel.rotation.Bk.L",
			"rotation":[
				-0.7071067690849304,
				0,
				0,
				0.7071067690849304
			],
			"translation":[
				0.6365892291069031,
				0.3297280967235565,
				-0.00025275349617004395
			]
		},
		{
			"name":"MCH-Wheel.rotation.Bk.R",
			"rotation":[
				-0.7071067690849304,
				0,
				0,
				0.7071067690849304
			],
			"translation":[
				-0.6363977789878845,
				0.329607754945755,
				0.00025272369384765625
			]
		},
		{
			"name":"Steering",
			"rotation":[
				0,
				0,
				-1,
				0
			],
			"translation":[
				0,
				-1.680055856704712,
				0
			]
		},
		{
			"children":[
				61
			],
			"name":"MCH-Steering.rotation",
			"rotation":[
				-0.7071067690849304,
				0,
				0,
				0.7071067690849304
			],
			"translation":[
				0,
				0.3163073658943176,
				1.042534351348877
			]
		},
		{
			"children":[
				4,
				6,
				8,
				10,
				12,
				56,
				57,
				58,
				59,
				60,
				62
			],
			"name":"Car Rig"
		},
		{
			"name":"WGT-CarRig.DriftHandle"
		},
		{
			"name":"WGT-CarRig.Root"
		},
		{
			"name":"WGT-CarRig.GroundSensor"
		},
		{
			"name":"WGT-CarRig.GroundSensor.Axle"
		},
		{
			"name":"WGT-CarRig.Wheel"
		},
		{
			"name":"WGT-CarRig.WheelBrake"
		},
		{
			"name":"WGT-CarRig.Steering"
		},
		{
			"name":"WGT-CarRig.Suspension"
		},
		{
			"name":"WGT-CarRig.WheelDamper"
		}
	],
	"materials":[
		{
			"doubleSided":true,
			"name":"CustomMaterial.005",
			"normalTexture":{
				"index":0
			},
			"pbrMetallicRoughness":{
				"baseColorTexture":{
					"index":1
				},
				"metallicRoughnessTexture":{
					"index":2
				}
			}
		},
		{
			"doubleSided":true,
			"name":"Material",
			"pbrMetallicRoughness":{
				"metallicFactor":0,
				"roughnessFactor":0.5
			}
		},
		{
			"doubleSided":true,
			"emissiveFactor":[
				1,
				1,
				1
			],
			"emissiveTexture":{
				"index":3
			},
			"name":"CustomMaterial.001",
			"pbrMetallicRoughness":{
				"baseColorFactor":[
					0,
					0,
					0,
					1
				],
				"metallicFactor":0
			}
		}
	],
	"meshes":[
		{
			"name":"model.005",
			"primitives":[
				{
					"attributes":{
						"POSITION":0,
						"NORMAL":1,
						"TEXCOORD_0":2
					},
					"indices":3,
					"material":0
				}
			]
		},
		{
			"name":"Sphere",
			"primitives":[
				{
					"attributes":{
						"POSITION":4,
						"NORMAL":5,
						"TEXCOORD_0":6
					},
					"indices":7,
					"material":1
				}
			]
		},
		{
			"name":"Sphere.001",
			"primitives":[
				{
					"attributes":{
						"POSITION":8,
						"NORMAL":9,
						"TEXCOORD_0":10
					},
					"indices":7,
					"material":1
				}
			]
		},
		{
			"name":"model",
			"primitives":[
				{
					"attributes":{
						"POSITION":11,
						"NORMAL":12,
						"TEXCOORD_0":13
					},
					"indices":14,
					"material":2
				}
			]
		},
		{
			"name":"model.001",
			"primitives":[
				{
					"attributes":{
						"POSITION":15,
						"NORMAL":16,
						"TEXCOORD_0":17
					},
					"indices":18,
					"material":2
				}
			]
		},
		{
			"name":"model.004",
			"primitives":[
				{
					"attributes":{
						"POSITION":19,
						"NORMAL":20,
						"TEXCOORD_0":21
					},
					"indices":22,
					"material":2
				}
			]
		},
		{
			"name":"model.002",
			"primitives":[
				{
					"attributes":{
						"POSITION":23,
						"NORMAL":24,
						"TEXCOORD_0":25
					},
					"indices":26,
					"material":2
				}
			]
		},
		{
			"name":"model.003",
			"primitives":[
				{
					"attributes":{
						"POSITION":27,
						"NORMAL":28,
						"TEXCOORD_0":29
					},
					"indices":30,
					"material":2
				}
			]
		}
	],
	"textures":[
		{
			"sampler":0,
			"source":0
		},
		{
			"sampler":0,
			"source":1
		},
		{
			"sampler":0,
			"source":2
		},
		{
			"sampler":0,
			"source":3
		}
	],
	"images":[
		{
			"mimeType":"image/png",
			"name":"texture_normal",
			"uri":"Collection%20texture/texture_normal.png"
		},
		{
			"mimeType":"image/png",
			"name":"texture_diffuse",
			"uri":"Collection%20texture/texture_diffuse.png"
		},
		{
			"mimeType":"image/png",
			"name":"texture_metallic-texture_roughness",
			"uri":"Collection%20texture/texture_metallic-texture_roughness.png"
		},
		{
			"mimeType":"image/png",
			"name":"shaded",
			"uri":"Collection%20texture/shaded.png"
		}
	],
	"accessors":[
		{
			"bufferView":0,
			"componentType":5126,
			"count":24157,
			"max":[
				0.2832125127315521,
				1.2015684843063354,
				0.7679141759872437
			],
			"min":[
				-0.28388649225234985,
				-0.7055545449256897,
				-0.5558688640594482
			],
			"type":"VEC3"
		},
		{
			"bufferView":1,
			"componentType":5126,
			"count":24157,
			"type":"VEC3"
		},
		{
			"bufferView":2,
			"componentType":5126,
			"count":24157,
			"type":"VEC2"
		},
		{
			"bufferView":3,
			"componentType":5123,
			"count":114168,
			"type":"SCALAR"
		},
		{
			"bufferView":4,
			"componentType":5126,
			"count":593,
			"max":[
				1.3804357051849365,
				3.993173360824585,
				1.1123402118682861
			],
			"min":[
				-0.8706517219543457,
				-1.001227617263794,
				-1.0591914653778076
			],
			"type":"VEC3"
		},
		{
			"bufferView":5,
			"componentType":5126,
			"count":593,
			"type":"VEC3"
		},
		{
			"bufferView":6,
			"componentType":5126,
			"count":593,
			"type":"VEC2"
		},
		{
			"bufferView":7,
			"componentType":5123,
			"count":3060,
			"type":"SCALAR"
		},
		{
			"bufferView":8,
			"componentType":5126,
			"count":593,
			"max":[
				1.3804357051849365,
				3.993173360824585,
				1.1123402118682861
			],
			"min":[
				-0.8706517219543457,
				-1.001227617263794,
				-1.0591914653778076
			],
			"type":"VEC3"
		},
		{
			"bufferView":9,
			"componentType":5126,
			"count":593,
			"type":"VEC3"
		},
		{
			"bufferView":10,
			"componentType":5126,
			"count":593,
			"type":"VEC2"
		},
		{
			"bufferView":11,
			"componentType":5126,
			"count":14541,
			"max":[
				0.4767119884490967,
				0.8936359882354736,
				-0.2488120049238205
			],
			"min":[
				-0.4777590036392212,
				-0.9507859945297241,
				-1.025989055633545
			],
			"type":"VEC3"
		},
		{
			"bufferView":12,
			"componentType":5126,
			"count":14541,
			"type":"VEC3"
		},
		{
			"bufferView":13,
			"componentType":5126,
			"count":14541,
			"type":"VEC2"
		},
		{
			"bufferView":14,
			"componentType":5123,
			"count":65952,
			"type":"SCALAR"
		},
		{
			"bufferView":15,
			"componentType":5126,
			"count":2401,
			"max":[
				0.13149017095565796,
				0.3151286244392395,
				0.31578952074050903
			],
			"min":[
				-0.19496983289718628,
				-0.2851383686065674,
				-0.32580047845840454
			],
			"type":"VEC3"
		},
		{
			"bufferView":16,
			"componentType":5126,
			"count":2401,
			"type":"VEC3"
		},
		{
			"bufferView":17,
			"componentType":5126,
			"count":2401,
			"type":"VEC2"
		},
		{
			"bufferView":18,
			"componentType":5123,
			"count":10992,
			"type":"SCALAR"
		},
		{
			"bufferView":19,
			"componentType":5126,
			"count":2391,
			"max":[
				0.18905922770500183,
				0.31497615575790405,
				0.3155711889266968
			],
			"min":[
				-0.13044774532318115,
				-0.28529083728790283,
				-0.3260188102722168
			],
			"type":"VEC3"
		},
		{
			"bufferView":20,
			"componentType":5126,
			"count":2391,
			"type":"VEC3"
		},
		{
			"bufferView":21,
			"componentType":5126,
			"count":2391,
			"type":"VEC2"
		},
		{
			"bufferView":22,
			"componentType":5123,
			"count":10923,
			"type":"SCALAR"
		},
		{
			"bufferView":23,
			"componentType":5126,
			"count":2643,
			"max":[
				0.13382470607757568,
				0.302786260843277,
				0.32972800731658936
			],
			"min":[
				-0.192119300365448,
				-0.3310047388076782,
				-0.31263500452041626
			],
			"type":"VEC3"
		},
		{
			"bufferView":24,
			"componentType":5126,
			"count":2643,
			"type":"VEC3"
		},
		{
			"bufferView":25,
			"componentType":5126,
			"count":2643,
			"type":"VEC2"
		},
		{
			"bufferView":26,
			"componentType":5123,
			"count":12021,
			"type":"SCALAR"
		},
		{
			"bufferView":27,
			"componentType":5126,
			"count":2655,
			"max":[
				0.19181370735168457,
				0.3022807836532593,
				0.32960766553878784
			],
			"min":[
				-0.13399630784988403,
				-0.3315102159976959,
				-0.3127553462982178
			],
			"type":"VEC3"
		},
		{
			"bufferView":28,
			"componentType":5126,
			"count":2655,
			"type":"VEC3"
		},
		{
			"bufferView":29,
			"componentType":5126,
			"count":2655,
			"type":"VEC2"
		},
		{
			"bufferView":30,
			"componentType":5123,
			"count":12048,
			"type":"SCALAR"
		}
	],
	"bufferViews":[
		{
			"buffer":0,
			"byteLength":289884,
			"byteOffset":0,
			"target":34962
		},
		{
			"buffer":0,
			"byteLength":289884,
			"byteOffset":289884,
			"target":34962
		},
		{
			"buffer":0,
			"byteLength":193256,
			"byteOffset":579768,
			"target":34962
		},
		{
			"buffer":0,
			"byteLength":228336,
			"byteOffset":773024,
			"target":34963
		},
		{
			"buffer":0,
			"byteLength":7116,
			"byteOffset":1001360,
			"target":34962
		},
		{
			"buffer":0,
			"byteLength":7116,
			"byteOffset":1008476,
			"target":34962
		},
		{
			"buffer":0,
			"byteLength":4744,
			"byteOffset":1015592,
			"target":34962
		},
		{
			"buffer":0,
			"byteLength":6120,
			"byteOffset":1020336,
			"target":34963
		},
		{
			"buffer":0,
			"byteLength":7116,
			"byteOffset":1026456,
			"target":34962
		},
		{
			"buffer":0,
			"byteLength":7116,
			"byteOffset":1033572,
			"target":34962
		},
		{
			"buffer":0,
			"byteLength":4744,
			"byteOffset":1040688,
			"target":34962
		},
		{
			"buffer":0,
			"byteLength":174492,
			"byteOffset":1045432,
			"target":34962
		},
		{
			"buffer":0,
			"byteLength":174492,
			"byteOffset":1219924,
			"target":34962
		},
		{
			"buffer":0,
			"byteLength":116328,
			"byteOffset":1394416,
			"target":34962
		},
		{
			"buffer":0,
			"byteLength":131904,
			"byteOffset":1510744,
			"target":34963
		},
		{
			"buffer":0,
			"byteLength":28812,
			"byteOffset":1642648,
			"target":34962
		},
		{
			"buffer":0,
			"byteLength":28812,
			"byteOffset":1671460,
			"target":34962
		},
		{
			"buffer":0,
			"byteLength":19208,
			"byteOffset":1700272,
			"target":34962
		},
		{
			"buffer":0,
			"byteLength":21984,
			"byteOffset":1719480,
			"target":34963
		},
		{
			"buffer":0,
			"byteLength":28692,
			"byteOffset":1741464,
			"target":34962
		},
		{
			"buffer":0,
			"byteLength":28692,
			"byteOffset":1770156,
			"target":34962
		},
		{
			"buffer":0,
			"byteLength":19128,
			"byteOffset":1798848,
			"target":34962
		},
		{
			"buffer":0,
			"byteLength":21846,
			"byteOffset":1817976,
			"target":34963
		},
		{
			"buffer":0,
			"byteLength":31716,
			"byteOffset":1839824,
			"target":34962
		},
		{
			"buffer":0,
			"byteLength":31716,
			"byteOffset":1871540,
			"target":34962
		},
		{
			"buffer":0,
			"byteLength":21144,
			"byteOffset":1903256,
			"target":34962
		},
		{
			"buffer":0,
			"byteLength":24042,
			"byteOffset":1924400,
			"target":34963
		},
		{
			"buffer":0,
			"byteLength":31860,
			"byteOffset":1948444,
			"target":34962
		},
		{
			"buffer":0,
			"byteLength":31860,
			"byteOffset":1980304,
			"target":34962
		},
		{
			"buffer":0,
			"byteLength":21240,
			"byteOffset":2012164,
			"target":34962
		},
		{
			"buffer":0,
			"byteLength":24096,
			"byteOffset":2033404,
			"target":34963
		}
	],
	"samplers":[
		{
			"magFilter":9729,
			"minFilter":9987
		}
	],
	"buffers":[
		{
			"byteLength":2057500,
			"uri":"Jeep%20copy.bin"
		}
	]
}
